# xmcd
#
# Track frame offsets:
#	150
#	18488
#	34796
#	52675
#	70600
#	86420
#	105156
#	128705
#
# Disc length: 2003 seconds
#
# Revision: 0
# Processed by: cddbd v1.4PL0 Copyright (c) Steve Scherf et al.
# Submitted via: dBpowerAMP V4.0
#
DISCID=5107d108
DTITLE=Various Artist - Various
DYEAR=1900
DGENRE=
TTITLE0=Oklahoma
TTITLE1=I Sure Can Smell the Rain
TTITLE2=Rebecca Lynn
TTITLE3=Have You Forgotten?
TTITLE4=Good Morning Beautiful
TTITLE5=Don't Take the Girl
TTITLE6=Go Rest High on That Mountain
TTITLE7=Where Were You (When the World Stopped Turning)
EXTD=
EXTT0=
EXTT1=
EXTT2=
EXTT3=
EXTT4=
EXTT5=
EXTT6=
EXTT7=
PLAYORDER=
